<?xml version="1.0" encoding="UTF-8" standalone="no"?>
<!DOCTYPE svg PUBLIC "-//W3C//DTD SVG 1.1//EN"
 "http://www.w3.org/Graphics/SVG/1.1/DTD/svg11.dtd">
<!-- Generated by graphviz version 14.0.2 (0)
 -->
<!-- Pages: 1 -->
<svg width="1070pt" height="166pt"
 viewBox="0.00 0.00 1070.00 166.00" xmlns="http://www.w3.org/2000/svg" xmlns:xlink="http://www.w3.org/1999/xlink">
<g id="graph0" class="graph" transform="scale(1 1) rotate(0) translate(4 161.98)">
<polygon fill="white" stroke="none" points="-4,4 -4,-161.98 1065.55,-161.98 1065.55,4 -4,4"/>
<g id="node1" class="node">
<title></title>
</g>
<!-- 0 -->
<g id="node2" class="node">
<title>0</title>
<ellipse fill="none" stroke="black" cx="109" cy="-117.73" rx="18" ry="18"/>
<text xml:space="preserve" text-anchor="middle" x="109" y="-113.05" font-family="Times,serif" font-size="14.00">0</text>
</g>
<!-- &#45;&gt;0 -->
<g id="edge1" class="edge">
<title>&#45;&gt;0</title>
<path fill="none" stroke="black" d="M53.75,-117.73C61.85,-117.73 70.85,-117.73 79.16,-117.73"/>
<polygon fill="black" stroke="black" points="79.12,-121.23 89.12,-117.73 79.12,-114.23 79.12,-121.23"/>
</g>
<!-- 1 -->
<g id="node3" class="node">
<title>1</title>
<ellipse fill="none" stroke="black" cx="508" cy="-117.73" rx="18" ry="18"/>
<text xml:space="preserve" text-anchor="middle" x="508" y="-113.05" font-family="Times,serif" font-size="14.00">1</text>
</g>
<!-- 0&#45;&gt;1 -->
<g id="edge8" class="edge">
<title>0&#45;&gt;1</title>
<path fill="none" stroke="black" d="M125.63,-125.26C141,-131.97 165.32,-140.73 187.5,-140.73 187.5,-140.73 187.5,-140.73 429.5,-140.73 447.17,-140.73 466.21,-135.16 480.99,-129.51"/>
<polygon fill="black" stroke="black" points="482.04,-132.86 489.97,-125.83 479.39,-126.38 482.04,-132.86"/>
<text xml:space="preserve" text-anchor="middle" x="308.5" y="-144.68" font-family="Times,serif" font-size="14.00">ε</text>
</g>
<!-- 2 -->
<g id="node4" class="node">
<title>2</title>
<ellipse fill="none" stroke="black" cx="188.5" cy="-66.73" rx="18" ry="18"/>
<text xml:space="preserve" text-anchor="middle" x="188.5" y="-62.05" font-family="Times,serif" font-size="14.00">2</text>
</g>
<!-- 0&#45;&gt;2 -->
<g id="edge9" class="edge">
<title>0&#45;&gt;2</title>
<path fill="none" stroke="black" d="M124.58,-108.14C135.51,-100.94 150.72,-90.93 163.44,-82.56"/>
<polygon fill="black" stroke="black" points="165.29,-85.53 171.72,-77.11 161.45,-79.68 165.29,-85.53"/>
<text xml:space="preserve" text-anchor="middle" x="148.75" y="-97.71" font-family="Times,serif" font-size="14.00">ε</text>
</g>
<!-- 8 -->
<g id="node10" class="node">
<title>8</title>
<ellipse fill="none" stroke="black" cx="587.5" cy="-117.73" rx="18" ry="18"/>
<text xml:space="preserve" text-anchor="middle" x="587.5" y="-113.05" font-family="Times,serif" font-size="14.00">8</text>
</g>
<!-- 1&#45;&gt;8 -->
<g id="edge12" class="edge">
<title>1&#45;&gt;8</title>
<path fill="none" stroke="black" d="M526.2,-117.73C535.47,-117.73 547.14,-117.73 557.75,-117.73"/>
<polygon fill="black" stroke="black" points="557.57,-121.23 567.57,-117.73 557.57,-114.23 557.57,-121.23"/>
<text xml:space="preserve" text-anchor="middle" x="547.75" y="-121.68" font-family="Times,serif" font-size="14.00">ε</text>
</g>
<!-- 4 -->
<g id="node6" class="node">
<title>4</title>
<ellipse fill="none" stroke="black" cx="268" cy="-94.73" rx="18" ry="18"/>
<text xml:space="preserve" text-anchor="middle" x="268" y="-90.05" font-family="Times,serif" font-size="14.00">4</text>
</g>
<!-- 2&#45;&gt;4 -->
<g id="edge4" class="edge">
<title>2&#45;&gt;4</title>
<path fill="none" stroke="black" d="M205.94,-72.67C215.8,-76.23 228.59,-80.85 239.91,-84.94"/>
<polygon fill="black" stroke="black" points="238.57,-88.18 249.16,-88.28 240.95,-81.59 238.57,-88.18"/>
<text xml:space="preserve" text-anchor="middle" x="228.25" y="-85.52" font-family="Times,serif" font-size="14.00">ε</text>
</g>
<!-- 6 -->
<g id="node8" class="node">
<title>6</title>
<ellipse fill="none" stroke="black" cx="268" cy="-40.73" rx="18" ry="18"/>
<text xml:space="preserve" text-anchor="middle" x="268" y="-36.05" font-family="Times,serif" font-size="14.00">6</text>
</g>
<!-- 2&#45;&gt;6 -->
<g id="edge5" class="edge">
<title>2&#45;&gt;6</title>
<path fill="none" stroke="black" d="M204.39,-57.7C210.45,-54.37 217.63,-50.84 224.5,-48.48 228.92,-46.96 233.71,-45.72 238.43,-44.72"/>
<polygon fill="black" stroke="black" points="239.03,-48.17 248.25,-42.94 237.79,-41.28 239.03,-48.17"/>
<text xml:space="preserve" text-anchor="middle" x="228.25" y="-52.43" font-family="Times,serif" font-size="14.00">ε</text>
</g>
<!-- 3 -->
<g id="node5" class="node">
<title>3</title>
<ellipse fill="none" stroke="black" cx="428.5" cy="-66.73" rx="18" ry="18"/>
<text xml:space="preserve" text-anchor="middle" x="428.5" y="-62.05" font-family="Times,serif" font-size="14.00">3</text>
</g>
<!-- 3&#45;&gt;1 -->
<g id="edge10" class="edge">
<title>3&#45;&gt;1</title>
<path fill="none" stroke="black" d="M444.08,-76.32C455.01,-83.52 470.22,-93.52 482.94,-101.9"/>
<polygon fill="black" stroke="black" points="480.95,-104.77 491.22,-107.35 484.79,-98.93 480.95,-104.77"/>
<text xml:space="preserve" text-anchor="middle" x="468.25" y="-97.71" font-family="Times,serif" font-size="14.00">ε</text>
</g>
<!-- 3&#45;&gt;2 -->
<g id="edge11" class="edge">
<title>3&#45;&gt;2</title>
<path fill="none" stroke="black" d="M416.77,-52.79C405.86,-39.86 387.65,-21.49 367,-13.73 318.33,4.58 298.67,4.58 250,-13.73 233.54,-19.92 218.64,-32.84 207.74,-44.37"/>
<polygon fill="black" stroke="black" points="205.29,-41.87 201.24,-51.66 210.51,-46.53 205.29,-41.87"/>
<text xml:space="preserve" text-anchor="middle" x="308.5" y="-4.03" font-family="Times,serif" font-size="14.00">ε</text>
</g>
<!-- 5 -->
<g id="node7" class="node">
<title>5</title>
<ellipse fill="none" stroke="black" cx="349" cy="-94.73" rx="18" ry="18"/>
<text xml:space="preserve" text-anchor="middle" x="349" y="-90.05" font-family="Times,serif" font-size="14.00">5</text>
</g>
<!-- 4&#45;&gt;5 -->
<g id="edge2" class="edge">
<title>4&#45;&gt;5</title>
<path fill="none" stroke="black" d="M286.14,-94.73C295.81,-94.73 308.13,-94.73 319.24,-94.73"/>
<polygon fill="black" stroke="black" points="319.11,-98.23 329.11,-94.73 319.11,-91.23 319.11,-98.23"/>
<text xml:space="preserve" text-anchor="middle" x="308.5" y="-98.68" font-family="Times,serif" font-size="14.00">a</text>
</g>
<!-- 5&#45;&gt;3 -->
<g id="edge6" class="edge">
<title>5&#45;&gt;3</title>
<path fill="none" stroke="black" d="M366.44,-88.79C376.3,-85.23 389.09,-80.61 400.41,-76.51"/>
<polygon fill="black" stroke="black" points="401.45,-79.86 409.66,-73.17 399.07,-73.28 401.45,-79.86"/>
<text xml:space="preserve" text-anchor="middle" x="388.75" y="-85.52" font-family="Times,serif" font-size="14.00">ε</text>
</g>
<!-- 7 -->
<g id="node9" class="node">
<title>7</title>
<ellipse fill="none" stroke="black" cx="349" cy="-40.73" rx="18" ry="18"/>
<text xml:space="preserve" text-anchor="middle" x="349" y="-36.05" font-family="Times,serif" font-size="14.00">7</text>
</g>
<!-- 6&#45;&gt;7 -->
<g id="edge3" class="edge">
<title>6&#45;&gt;7</title>
<path fill="none" stroke="black" d="M286.14,-40.73C295.81,-40.73 308.13,-40.73 319.24,-40.73"/>
<polygon fill="black" stroke="black" points="319.11,-44.23 329.11,-40.73 319.11,-37.23 319.11,-44.23"/>
<text xml:space="preserve" text-anchor="middle" x="308.5" y="-44.68" font-family="Times,serif" font-size="14.00">b</text>
</g>
<!-- 7&#45;&gt;3 -->
<g id="edge7" class="edge">
<title>7&#45;&gt;3</title>
<path fill="none" stroke="black" d="M367.26,-42.68C375.1,-43.86 384.41,-45.7 392.5,-48.48 395.83,-49.62 399.23,-51.04 402.54,-52.58"/>
<polygon fill="black" stroke="black" points="400.76,-55.6 411.26,-57.01 403.94,-49.36 400.76,-55.6"/>
<text xml:space="preserve" text-anchor="middle" x="388.75" y="-52.43" font-family="Times,serif" font-size="14.00">ε</text>
</g>
<!-- 9 -->
<g id="node11" class="node">
<title>9</title>
<ellipse fill="none" stroke="black" cx="667.75" cy="-117.73" rx="18" ry="18"/>
<text xml:space="preserve" text-anchor="middle" x="667.75" y="-113.05" font-family="Times,serif" font-size="14.00">9</text>
</g>
<!-- 8&#45;&gt;9 -->
<g id="edge13" class="edge">
<title>8&#45;&gt;9</title>
<path fill="none" stroke="black" d="M605.87,-117.73C615.29,-117.73 627.18,-117.73 637.94,-117.73"/>
<polygon fill="black" stroke="black" points="637.92,-121.23 647.92,-117.73 637.92,-114.23 637.92,-121.23"/>
<text xml:space="preserve" text-anchor="middle" x="627.62" y="-121.68" font-family="Times,serif" font-size="14.00">a</text>
</g>
<!-- 10 -->
<g id="node12" class="node">
<title>10</title>
<ellipse fill="none" stroke="black" cx="753.1" cy="-117.73" rx="23.85" ry="23.85"/>
<text xml:space="preserve" text-anchor="middle" x="753.1" y="-113.05" font-family="Times,serif" font-size="14.00">10</text>
</g>
<!-- 9&#45;&gt;10 -->
<g id="edge14" class="edge">
<title>9&#45;&gt;10</title>
<path fill="none" stroke="black" d="M686.02,-117.73C695.12,-117.73 706.63,-117.73 717.48,-117.73"/>
<polygon fill="black" stroke="black" points="717.33,-121.23 727.33,-117.73 717.33,-114.23 717.33,-121.23"/>
<text xml:space="preserve" text-anchor="middle" x="707.5" y="-121.68" font-family="Times,serif" font-size="14.00">ε</text>
</g>
<!-- 11 -->
<g id="node13" class="node">
<title>11</title>
<ellipse fill="none" stroke="black" cx="845.8" cy="-117.73" rx="23.85" ry="23.85"/>
<text xml:space="preserve" text-anchor="middle" x="845.8" y="-113.05" font-family="Times,serif" font-size="14.00">11</text>
</g>
<!-- 10&#45;&gt;11 -->
<g id="edge15" class="edge">
<title>10&#45;&gt;11</title>
<path fill="none" stroke="black" d="M776.99,-117.73C787.11,-117.73 799.24,-117.73 810.42,-117.73"/>
<polygon fill="black" stroke="black" points="810.09,-121.23 820.09,-117.73 810.09,-114.23 810.09,-121.23"/>
<text xml:space="preserve" text-anchor="middle" x="799.45" y="-121.68" font-family="Times,serif" font-size="14.00">b</text>
</g>
<!-- 12 -->
<g id="node14" class="node">
<title>12</title>
<ellipse fill="none" stroke="black" cx="937" cy="-117.73" rx="23.85" ry="23.85"/>
<text xml:space="preserve" text-anchor="middle" x="937" y="-113.05" font-family="Times,serif" font-size="14.00">12</text>
</g>
<!-- 11&#45;&gt;12 -->
<g id="edge16" class="edge">
<title>11&#45;&gt;12</title>
<path fill="none" stroke="black" d="M869.77,-117.73C879.37,-117.73 890.74,-117.73 901.32,-117.73"/>
<polygon fill="black" stroke="black" points="901.28,-121.23 911.28,-117.73 901.28,-114.23 901.28,-121.23"/>
<text xml:space="preserve" text-anchor="middle" x="891.4" y="-121.68" font-family="Times,serif" font-size="14.00">ε</text>
</g>
<!-- 13 -->
<g id="node15" class="node">
<title>13</title>
<ellipse fill="none" stroke="black" cx="1033.7" cy="-117.73" rx="23.85" ry="23.85"/>
<ellipse fill="none" stroke="black" cx="1033.7" cy="-117.73" rx="27.85" ry="27.85"/>
<text xml:space="preserve" text-anchor="middle" x="1033.7" y="-113.05" font-family="Times,serif" font-size="14.00">13</text>
</g>
<!-- 12&#45;&gt;13 -->
<g id="edge17" class="edge">
<title>12&#45;&gt;13</title>
<path fill="none" stroke="black" d="M960.93,-117.73C970.92,-117.73 982.91,-117.73 994.21,-117.73"/>
<polygon fill="black" stroke="black" points="994.1,-121.23 1004.1,-117.73 994.1,-114.23 994.1,-121.23"/>
<text xml:space="preserve" text-anchor="middle" x="983.35" y="-121.68" font-family="Times,serif" font-size="14.00">b</text>
</g>
</g>
</svg>
